<?xml version="1.0" encoding="UTF-8"?>
<svg id="_图层_1" data-name="图层 1" xmlns="http://www.w3.org/2000/svg" viewBox="0 0 213.89 246.98">
  <defs>
    <style>
      .cls-1 {
        fill: #76a12f;
      }

      .cls-2 {
        fill: #5d6366;
      }

      .cls-3 {
        fill: #7aa82c;
      }

      .cls-4 {
        fill: #b7b8b5;
      }

      .cls-5 {
        fill: #eceade;
      }
    </style>
  </defs>
  <polygon class="cls-3" points="175 72.97 175 162.78 165.28 168.39 155.55 174 155.55 84.2 165.28 78.58 175 72.97"/>
  <polygon class="cls-1" points="58.34 72.97 58.34 162.78 48.61 168.39 38.89 174.01 38.89 84.2 48.61 78.58 58.34 72.97"/>
  <path class="cls-2" d="m204.16,56.13l-9.71-5.61-9.72-5.62h-.01l-9.72-5.6-9.72-5.62-9.73-5.61-9.71-5.62-9.73-5.61-9.72-5.61-9.73-5.62-9.71-5.61-9.72,5.61-9.73,5.62-9.72,5.61-9.73,5.61-9.71,5.62-9.73,5.61-9.72,5.62-9.72,5.6-9.72,5.62-9.72,5.61L0,61.74v123.5l9.73,5.61,9.72,5.61,9.72,5.62,9.72,5.6,9.71,5.62,9.74,5.61,9.71,5.61,9.73,5.62,9.71,5.61,9.74,5.62,9.72,5.61,9.71-5.61,9.74-5.62,9.71-5.61,9.73-5.62,9.71-5.61,9.74-5.61,9.71-5.62,9.72-5.6,9.73-5.62,9.71-5.61,9.73-5.61V61.74l-9.73-5.61Zm-9.71,117.88l-9.73,5.61-9.72,5.61-9.72,5.62-9.73,5.61-9.71,5.61-9.73,5.61-9.71,5.62h-.01l-9.73,5.61-9.71,5.61-9.72-5.61-9.74-5.61-9.71-5.62-9.73-5.61-9.71-5.61-9.73-5.61-9.72-5.62-9.72-5.61-9.72-5.61v-101.04l9.71-5.61,9.73-5.61,9.72-5.62,9.73-5.61,9.71-5.62,9.73-5.61,9.71-5.61,9.74-5.62,9.72-5.61,9.71,5.61,9.74,5.62,9.71,5.61,9.73,5.61,9.71,5.62,9.73,5.61,9.72,5.62,9.72,5.61h.01l9.72,5.61v101.04Z"/>
  <polygon class="cls-4" points="155.55 162.78 155.55 174 145.83 179.62 136.11 185.23 126.39 190.84 116.66 196.46 106.95 202.07 97.23 196.46 87.5 190.84 77.78 185.23 68.06 179.62 58.34 174 58.34 162.78 68.06 157.17 77.78 162.78 87.5 168.39 97.23 174.01 106.95 179.62 116.66 174.01 126.39 168.39 116.66 162.78 106.95 157.17 97.23 151.56 87.5 145.94 87.49 145.94 77.78 140.33 68.05 134.72 58.34 129.1 58.34 117.88 68.05 112.26 77.78 117.88 87.49 123.49 97.23 129.11 116.66 140.33 126.39 145.94 136.11 151.56 145.83 157.17 155.55 162.78"/>
  <polygon class="cls-5" points="97.23 72.97 87.5 78.58 97.23 84.2 106.95 89.81 116.66 95.42 126.39 101.04 136.11 106.65 145.84 112.26 155.55 117.88 155.55 129.1 145.84 134.72 136.11 129.1 126.4 123.49 116.66 117.87 97.23 106.65 87.5 101.04 87.49 101.04 77.78 95.42 68.05 89.81 58.34 84.2 58.34 72.97 68.05 67.36 77.78 61.75 87.5 56.13 97.23 50.52 106.95 44.9 116.66 50.52 126.39 56.13 136.11 61.75 145.84 67.36 155.55 72.97 155.55 84.2 145.84 89.81 136.11 84.2 126.39 78.58 116.66 72.97 106.95 67.36 97.23 72.97"/>
</svg>